<?xml version="1.0" standalone="no"?><!DOCTYPE svg PUBLIC "-//W3C//DTD SVG 1.1//EN" "http://www.w3.org/Graphics/SVG/1.1/DTD/svg11.dtd"><svg t="1774694977716" class="icon" viewBox="0 0 1024 1024" version="1.1" xmlns="http://www.w3.org/2000/svg" p-id="18594" xmlns:xlink="http://www.w3.org/1999/xlink" width="200" height="200"><path d="M416 400l32 0 0 336-32 0 0-336ZM576 400l32 0 0 336-32 0 0-336ZM688 240 688 144c0-17.6-14.4-32-32-32L368 112c-17.6 0-32 14.4-32 32l0 96L128 240l0 48 96 0 0 560c0 35.2 28.8 64 64 64l448 0c35.2 0 64-28.8 64-64L800 288l96 0 0-48L688 240zM384 176c0-9.6 6.4-16 16-16l224 0c9.6 0 16 6.4 16 16l0 64L384 240 384 176zM752 832c0 17.6-14.4 32-32 32L304 864c-17.6 0-32-14.4-32-32L272 288l480 0L752 832z" fill="#272636" p-id="18595"></path></svg>