<?xml version="1.0" standalone="no"?><!DOCTYPE svg PUBLIC "-//W3C//DTD SVG 1.1//EN" "http://www.w3.org/Graphics/SVG/1.1/DTD/svg11.dtd"><svg t="1774654088553" class="icon" viewBox="0 0 1024 1024" version="1.1" xmlns="http://www.w3.org/2000/svg" p-id="14095" xmlns:xlink="http://www.w3.org/1999/xlink" width="200" height="200"><path d="M285.994667 682.666667a277.333333 277.333333 0 0 0 496-170.666667 42.666667 42.666667 0 1 1 85.333333 0A362.666667 362.666667 0 0 1 234.666667 754.176V768a42.666667 42.666667 0 0 1-85.333334 0v-128a42.666667 42.666667 0 0 1 42.666667-42.666667h128a42.666667 42.666667 0 0 1 0 85.333334h-34.005333z m444.672-341.333334A277.333333 277.333333 0 0 0 234.666667 512a42.666667 42.666667 0 0 1-85.333334 0 362.666667 362.666667 0 0 1 640-233.770667V256a42.666667 42.666667 0 0 1 85.333334 0v128a42.666667 42.666667 0 0 1-42.666667 42.666667h-128a42.666667 42.666667 0 0 1 0-85.333334h26.666667z" fill="#2c2c2c" p-id="14096"></path></svg>